<svg id="Layer_1" data-name="Layer 1" xmlns="http://www.w3.org/2000/svg" xmlns:xlink="http://www.w3.org/1999/xlink" viewBox="0 0 1920 1080"><defs><style>.cls-1{fill:none;}.cls-2{clip-path:url(#clip-path);}.cls-3{clip-path:url(#clip-path-2);}.cls-4{fill:#e46328;}.cls-5{fill:#f58045;}.cls-6{fill:#514333;}.cls-7{fill:#3e3125;}.cls-8{fill:#ec2027;}.cls-9{fill:#e17c26;}.cls-10{fill:#cc3127;}.cls-11{fill:#e4eae9;}.cls-12{fill:#bececd;}.cls-13{fill:#e8aa74;}.cls-14{fill:#f4c183;}.cls-15{fill:#3e3a37;}.cls-16{fill:#e85138;}.cls-17{fill:#f37062;}.cls-18{fill:#d81f27;}.cls-19{fill:#646262;}.cls-20{fill:#969595;}.cls-21{fill:#b0b0b0;}.cls-22{fill:#634237;}</style><clipPath id="clip-path"><rect class="cls-1" x="-14.66" y="-17.98" width="1946.55" height="1097.98"/></clipPath><clipPath id="clip-path-2"><polygon class="cls-1" points="1221.81 93.65 1460.7 -104.31 1758.19 -159.07 2036.6 -49.55 2306.93 14.57 2326.11 227.52 2236.98 298.68 2179.56 777.12 1982.52 841.24 1605.46 722.36 1514.48 546.5 1307.86 390.53 1221.81 93.65"/></clipPath></defs><g class="cls-2"><g class="cls-3"><rect class="cls-1" x="-1254.4" y="-72.12" width="3637.64" height="1750.48"/><rect class="cls-4" x="1191.58" y="-54.48" width="289.5" height="112.55" rx="19.18"/><rect class="cls-5" x="1221.81" y="-54.48" width="259.27" height="83.3" rx="19.18"/><rect class="cls-4" x="1470" y="-54.48" width="289.5" height="112.55" rx="19.18"/><rect class="cls-5" x="1500.23" y="-54.48" width="259.27" height="83.3" rx="19.18"/><rect class="cls-4" x="1743.94" y="-54.48" width="289.5" height="112.55" rx="19.18"/><rect class="cls-5" x="1774.16" y="-54.48" width="259.27" height="83.3" rx="19.18"/><rect class="cls-4" x="1023.29" y="37.37" width="289.5" height="112.55" rx="19.18"/><rect class="cls-5" x="1053.52" y="37.37" width="259.27" height="83.3" rx="19.18"/><rect class="cls-4" x="1301.7" y="37.37" width="289.5" height="112.55" rx="19.18"/><rect class="cls-5" x="1331.93" y="37.37" width="259.27" height="83.3" rx="19.18"/><rect class="cls-4" x="1575.64" y="37.37" width="289.5" height="112.55" rx="19.18"/><rect class="cls-5" x="1605.87" y="37.37" width="259.27" height="83.3" rx="19.18"/><rect class="cls-4" x="1854.05" y="37.37" width="289.5" height="112.55" rx="19.18"/><rect class="cls-5" x="1884.28" y="37.37" width="259.27" height="83.3" rx="19.18"/><rect class="cls-4" x="1191.58" y="129.23" width="289.5" height="112.55" rx="19.18"/><rect class="cls-5" x="1221.81" y="129.23" width="259.27" height="83.3" rx="19.18"/><rect class="cls-4" x="1470" y="129.23" width="289.5" height="112.55" rx="19.18"/><rect class="cls-5" x="1500.23" y="129.23" width="259.27" height="83.3" rx="19.18"/><rect class="cls-4" x="1743.94" y="129.23" width="289.5" height="112.55" rx="19.18"/><rect class="cls-5" x="1774.16" y="129.23" width="259.27" height="83.3" rx="19.18"/><rect class="cls-4" x="1023.29" y="221.08" width="289.5" height="112.55" rx="19.18"/><rect class="cls-5" x="1053.52" y="221.08" width="259.27" height="83.3" rx="19.18"/><rect class="cls-4" x="1301.7" y="221.08" width="289.5" height="112.55" rx="19.18"/><rect class="cls-5" x="1331.93" y="221.08" width="259.27" height="83.3" rx="19.18"/><rect class="cls-4" x="1575.64" y="221.08" width="289.5" height="112.55" rx="19.18"/><rect class="cls-5" x="1605.87" y="221.08" width="259.27" height="83.3" rx="19.18"/><rect class="cls-4" x="1854.05" y="221.08" width="289.5" height="112.55" rx="19.18"/><rect class="cls-5" x="1884.28" y="221.08" width="259.27" height="83.3" rx="19.18"/><rect class="cls-4" x="1191.58" y="312.93" width="289.5" height="112.55" rx="19.18"/><rect class="cls-5" x="1221.81" y="312.93" width="259.27" height="83.3" rx="19.18"/><rect class="cls-4" x="1470" y="312.93" width="289.5" height="112.55" rx="19.18"/><rect class="cls-5" x="1500.23" y="312.93" width="259.27" height="83.3" rx="19.18"/><rect class="cls-4" x="1743.94" y="312.93" width="289.5" height="112.55" rx="19.18"/><rect class="cls-5" x="1774.16" y="312.93" width="259.27" height="83.3" rx="19.18"/><rect class="cls-4" x="1023.29" y="404.78" width="289.5" height="112.55" rx="19.18"/><rect class="cls-5" x="1053.52" y="404.78" width="259.27" height="83.3" rx="19.18"/><rect class="cls-4" x="1301.7" y="404.78" width="289.5" height="112.55" rx="19.18"/><rect class="cls-5" x="1331.93" y="404.78" width="259.27" height="83.3" rx="19.18"/><rect class="cls-4" x="1575.64" y="404.78" width="289.5" height="112.55" rx="19.18"/><rect class="cls-5" x="1605.87" y="404.78" width="259.27" height="83.3" rx="19.18"/><rect class="cls-4" x="1854.05" y="404.78" width="289.5" height="112.55" rx="19.18"/><rect class="cls-5" x="1884.28" y="404.78" width="259.27" height="83.3" rx="19.18"/><rect class="cls-4" x="1191.58" y="496.63" width="289.5" height="112.55" rx="19.18"/><rect class="cls-5" x="1221.81" y="496.63" width="259.27" height="83.3" rx="19.18"/><rect class="cls-4" x="1470" y="496.63" width="289.5" height="112.55" rx="19.18"/><rect class="cls-5" x="1500.23" y="496.63" width="259.27" height="83.3" rx="19.18"/><rect class="cls-4" x="1743.94" y="496.63" width="289.5" height="112.55" rx="19.18"/><rect class="cls-5" x="1774.16" y="496.63" width="259.27" height="83.3" rx="19.18"/><rect class="cls-4" x="1023.29" y="588.49" width="289.5" height="112.55" rx="19.18"/><rect class="cls-5" x="1053.52" y="588.49" width="259.27" height="83.3" rx="19.18"/><rect class="cls-4" x="1301.7" y="588.49" width="289.5" height="112.55" rx="19.18"/><rect class="cls-5" x="1331.93" y="588.49" width="259.27" height="83.3" rx="19.18"/><rect class="cls-4" x="1575.64" y="588.49" width="289.5" height="112.55" rx="19.18"/><rect class="cls-5" x="1605.87" y="588.49" width="259.27" height="83.3" rx="19.18"/><rect class="cls-4" x="1854.05" y="588.49" width="289.5" height="112.55" rx="19.18"/><rect class="cls-5" x="1884.28" y="588.49" width="259.27" height="83.3" rx="19.18"/><rect class="cls-4" x="1191.58" y="680.34" width="289.5" height="112.55" rx="19.18"/><rect class="cls-5" x="1221.81" y="680.34" width="259.27" height="83.3" rx="19.18"/><rect class="cls-4" x="1470" y="680.34" width="289.5" height="112.55" rx="19.18"/><rect class="cls-5" x="1500.23" y="680.34" width="259.27" height="83.3" rx="19.18"/><rect class="cls-4" x="1743.94" y="680.34" width="289.5" height="112.55" rx="19.18"/><rect class="cls-5" x="1774.16" y="680.34" width="259.27" height="83.3" rx="19.18"/><rect class="cls-4" x="1023.29" y="772.19" width="289.5" height="112.55" rx="19.18"/><rect class="cls-5" x="1053.52" y="772.19" width="259.27" height="83.3" rx="19.18"/><rect class="cls-4" x="1301.7" y="772.19" width="289.5" height="112.55" rx="19.18"/><rect class="cls-5" x="1331.93" y="772.19" width="259.27" height="83.3" rx="19.18"/><rect class="cls-4" x="1575.64" y="772.19" width="289.5" height="112.55" rx="19.18"/><rect class="cls-5" x="1605.87" y="772.19" width="259.27" height="83.3" rx="19.18"/><rect class="cls-4" x="1854.05" y="772.19" width="289.5" height="112.55" rx="19.18"/><rect class="cls-5" x="1884.28" y="772.19" width="259.27" height="83.3" rx="19.18"/></g><path class="cls-6" d="M1658.88,1023.8a2.93,2.93,0,0,1,2.94-2.93h30a31.85,31.85,0,0,1,31.69,28.61,3,3,0,0,1-2.94,3.24h-58.7a2.94,2.94,0,0,1-2.94-2.94Z"/><rect class="cls-6" x="1658.88" y="1014.88" width="32.79" height="5.88" rx="2.94"/><rect class="cls-7" x="1658.88" y="1052.72" width="64.75" height="8.76" rx="2.94"/><path class="cls-6" d="M1621.27,1023.8a2.93,2.93,0,0,0-2.94-2.93h-29.95a31.82,31.82,0,0,0-31.67,28.61,3,3,0,0,0,2.94,3.24h58.68a2.94,2.94,0,0,0,2.94-2.94Z"/><rect class="cls-6" x="1588.48" y="1014.88" width="32.79" height="5.87" rx="2.94"/><rect class="cls-7" x="1556.54" y="1052.72" width="64.73" height="8.75" rx="2.94"/><path class="cls-8" d="M1571.5,728c0-41.4,30.66-46.06,68.5-46.06s68.48,4.66,68.48,46.06l-.76,151.17c-.14.15-.35.28-.5.44h.5L1700,1017.75a2.94,2.94,0,0,1-2.93,2.84h-46.23a2.94,2.94,0,0,1-2.94-2.94v-104s0-.44,0-1.17c-2.61.26-5.25.41-7.93.41s-5.34-.15-8-.41c0,.73,0,1.17,0,1.17v104a2.94,2.94,0,0,1-2.93,2.94H1583a3,3,0,0,1-2.94-2.84l-7.74-138.13h.5c-.15-.16-.36-.29-.5-.44Z"/><path class="cls-9" d="M1646.58,912.55c-2.17.19-4.35.34-6.58.34a55.09,55.09,0,0,0,6.58-.41Z"/><path class="cls-9" d="M1633.41,912.48a55.26,55.26,0,0,0,6.59.41c-2.22,0-4.43-.15-6.59-.34Z"/><path class="cls-10" d="M1571.5,728h11.71l.64,151.17c.13.15.3.28.42.44h-.42l6.41,138a2.94,2.94,0,0,1-2.93,3H1583a3,3,0,0,1-2.94-2.84l-7.74-138.13h.5c-.15-.16-.36-.29-.5-.44Z"/><path class="cls-10" d="M1696.13,879.62h-.41c.13-.16.3-.29.41-.44l.64-151.17h11.71l-.76,151.17c-.14.15-.35.28-.5.44h.5L1700,1017.75a2.94,2.94,0,0,1-2.93,2.84h-4.39a2.94,2.94,0,0,1-2.94-3Z"/><path class="cls-11" d="M1695,693.67s44,33.18,63.54,33.85c21.46.73,55.54-18.88,55.54-18.88l29.39,30.06s-49.89,40.13-89.41,37.74c-11.92-.71-32.19-9.47-50.18-18.45C1684.05,748.11,1690.1,688.8,1695,693.67Z"/><path class="cls-11" d="M1688.39,689.44,1682.18,770s-2.56,31.27,25.88,41.43l.42-83.41C1708.48,707.29,1700.81,695.78,1688.39,689.44Z"/><path class="cls-12" d="M1798.31,752.08s-25.42,14.58-49.32,8.6-51.85-20.31-51.85-20.31l-.69,64.43s5.37,4.9,11.61,6.62l.42-51.15s28.32,18.52,54.61,16.28,45.4-14.19,46.83-19.21S1798.31,752.08,1798.31,752.08Z"/><path class="cls-11" d="M1607.83,684.28c.93-.18,1.9-.31,2.86-.46H1670l2.12.34L1666.4,745h-53.09Z"/><path class="cls-11" d="M1516.44,775c19-13.33,38.29-55.38,50-72.26,8.29-12,25.21-13.31,25.21-13.31l-10.84,89.85c-11.92,13.89-21.35,24.33-29.2,29.38-26.51,17.07-69.24,18.71-82,18.81a5.42,5.42,0,0,1-5.07-3.41l-11-27.48a5.42,5.42,0,0,1,4.55-7.42C1472.25,787.92,1503.36,784.2,1516.44,775Z"/><path class="cls-11" d="M1591.6,689.44l6.21,80.55s2.57,31.27-25.89,41.43L1571.5,728C1571.5,707.29,1579.18,695.78,1591.6,689.44Z"/><path class="cls-13" d="M1610.18,691.41A29.82,29.82,0,0,0,1640,721.22h0a29.82,29.82,0,0,0,29.81-29.81V670.3A29.81,29.81,0,0,0,1640,640.49h0a29.82,29.82,0,0,0-29.82,29.81Z"/><path class="cls-14" d="M1697.14,624.37c2.09,15,1.69,37.92-16.44,39-13.46,20.82-35,28.92-47,30.88-41,6.72-78.42-21-64-64.39,15.46-46.62,9.33-94.67,46.94-96.26C1699.36,530,1690.83,579.09,1697.14,624.37Z"/><path class="cls-15" d="M1678,635.67s.85-40.56-15.85-46.69,25.11-15.32,31.38-10c10.31,8.81,4.26,54.1,4.26,54.1S1695.52,614.78,1678,635.67Z"/><path class="cls-16" d="M1634.57,525a65.51,65.51,0,0,0-64,67l65.66,20.14L1701.6,589A65.51,65.51,0,0,0,1634.57,525Z"/><path class="cls-17" d="M1636.81,621.45C1613,622,1590,617.71,1570.28,609a15.19,15.19,0,0,1-2.28-1,9.93,9.93,0,0,1-3.86-13.49,10.2,10.2,0,0,1,13.49-3.9c17.29,7.66,37.68,11.51,58.72,11s41-5.21,57.69-13.6c.26-.14.51-.24.76-.36a10.11,10.11,0,0,1,13.32,3.27,10,10,0,0,1-3.08,13.75,14.45,14.45,0,0,1-2.66,1.35C1683.45,615.5,1660.68,620.88,1636.81,621.45Z"/><path class="cls-8" d="M1634.57,525a65.51,65.51,0,0,0-64,67l65.66,20.14L1701.6,589A65.51,65.51,0,0,0,1634.57,525Z"/><path class="cls-18" d="M1622.77,582.11c.08,4.85-2.92,9.19-7.59,9.86h0c-4.65.69-9.6-4-9.83-10.56-.88-24.84,8.68-46.74,31.54-59.84,6-3.44,15.7-2.1,19.35,6.57a46.68,46.68,0,0,0-9.3,3.83C1628.38,542.14,1622.33,562.82,1622.77,582.11Z"/><path class="cls-18" d="M1659.84,579.47c.14,4.71-2.5,9.24-7.09,10.37h0c-4.52,1.15-10-3.43-10.45-10.49a51.73,51.73,0,0,1,19.49-43.82c5.7-4.61,15.09-3.6,16.27,4.65C1678.06,540.18,1660.54,552.7,1659.84,579.47Z"/><path class="cls-18" d="M1596,572.49c.13,4.7-2.5,9.24-7.1,10.37h0c-4.52,1.16-10-3.43-10.45-10.49A51.74,51.74,0,0,1,1598,528.55c5.7-4.61,14-3.94,16.69.15h0C1596.62,538.17,1595.57,560.55,1596,572.49Z"/><path class="cls-18" d="M1636.81,621.45C1613,622,1590,617.71,1570.28,609a15.19,15.19,0,0,1-2.28-1,9.93,9.93,0,0,1-3.86-13.49,10.2,10.2,0,0,1,13.49-3.9c17.29,7.66,37.68,11.51,58.72,11s41-5.21,57.69-13.6c.26-.14.51-.24.76-.36a10.11,10.11,0,0,1,13.32,3.27,10,10,0,0,1-3.08,13.75,14.45,14.45,0,0,1-2.66,1.35C1683.45,615.5,1660.68,620.88,1636.81,621.45Z"/><path class="cls-17" d="M1664,763.63v21.55a25.05,25.05,0,0,1-50.1,0V763.63Z"/><path class="cls-19" d="M1833.64,678.07a2,2,0,0,1-2-2V621.88a2,2,0,0,1,3.93,0l-.2,54.24A1.8,1.8,0,0,1,1833.64,678.07Z"/><path class="cls-20" d="M1872.7,645.21l-34.37-73.15a5.14,5.14,0,0,0-4.69-3,5.26,5.26,0,0,0-4.72,3l-34.36,73.17a5.27,5.27,0,0,0,.32,5,5.2,5.2,0,0,0,4.39,2.41H1868a5.2,5.2,0,0,0,4.71-7.4Z"/><path class="cls-21" d="M1843.35,591.23l-36.67,36.67-8.85,18.84a1.62,1.62,0,0,0,.08,1.29L1847,599Z"/><polygon class="cls-21" points="1850.14 605.66 1806.79 649 1830.79 649 1857.8 621.99 1850.14 605.66"/><path class="cls-20" d="M1848.35,735.06s-30.29,29.37-43.91,36c0,0-20-26.91-25.21-50.68,0,0,25.29-5.17,34.56-16.06S1848.35,735.06,1848.35,735.06Z"/><path class="cls-22" d="M1831.66,673.14c-3.11,6.31-5,30.17-5,48.63,0,21.45,3.14,27.43,7,27.43s7-6,7-27.43c0-18.46-2.12-42.32-5.24-48.63Z"/><path class="cls-20" d="M1811.53,712.62c3.08,15.62,27.13,27.41,36.82,22.44s12-37.2-3.59-46.4S1808.48,697,1811.53,712.62Z"/><path class="cls-12" d="M1580.21,805.07a38.89,38.89,0,0,1-11.77,6.61l-.42-35,12.1-23.51Z"/><path class="cls-12" d="M1512.75,809.7c44.65-3.26,67.23-59.78,67.23-59.78l.14,3.25-2.73,26c-12.07,14.07-21.62,24.64-29.57,29.76-13.62,8.77-31.47,13.52-47.44,16.08a5.46,5.46,0,0,1-6.32-4.5C1493.3,815.17,1497.7,810.8,1512.75,809.7Z"/><path class="cls-20" d="M1460.7,831.87c11-.19,41.44-1,56.57-4a5.47,5.47,0,0,0,4.25-6.42c-1.76-8.93-6.16-27.94-14.15-43a5.53,5.53,0,0,0-7.89-2.12c-7.52,5-23.57,13.32-43.8,11.23-11.63-1.2-3.63,29.28-.33,40.39A5.46,5.46,0,0,0,1460.7,831.87Z"/><rect class="cls-4" x="1415.13" y="774.37" width="82.9" height="32.23" rx="5.49"/><rect class="cls-5" x="1423.78" y="774.37" width="74.24" height="23.85" rx="5.49"/></g></svg>