<svg xmlns="http://www.w3.org/2000/svg" xmlns:xlink="http://www.w3.org/1999/xlink" viewBox="0 0 1920 1080"><defs><style>.cls-1{fill:none;}.cls-2{isolation:isolate;}.cls-3{clip-path:url(#clip-path);}.cls-4{clip-path:url(#clip-path-2);}.cls-5{fill:#e46328;}.cls-6{fill:#f58045;}.cls-7{fill:#514333;}.cls-8{fill:#3e3125;}.cls-9{fill:#ec2027;}.cls-10{fill:#e17c26;}.cls-11{fill:#cc3127;}.cls-12{fill:#e4eae9;}.cls-13{fill:#bececd;}.cls-14{fill:#e8aa74;}.cls-15{fill:#f4c183;}.cls-16{fill:#3e3a37;}.cls-17{fill:#e85138;}.cls-18{fill:#f37062;}.cls-19{fill:#d81f27;}.cls-20{fill:#646262;}.cls-21{fill:#969595;}.cls-22{fill:#b0b0b0;}.cls-23{fill:#634237;}.cls-24{fill:url(#linear-gradient);}.cls-25{fill-rule:evenodd;opacity:0.25;mix-blend-mode:lighten;fill:url(#radial-gradient);}</style><clipPath id="clip-path"><rect class="cls-1" x="-14.66" y="-17.98" width="1946.55" height="1097.98"/></clipPath><clipPath id="clip-path-2"><polygon class="cls-1" points="1221.81 93.65 1460.7 -104.31 1758.19 -159.07 2036.6 -49.55 2306.93 14.57 2326.11 227.52 2236.98 298.68 2179.56 777.12 1982.52 841.24 1605.46 722.36 1514.48 546.5 1307.86 390.53 1221.81 93.65"/></clipPath><linearGradient id="linear-gradient" x1="-13.86" y1="539.81" x2="1938.09" y2="539.81" gradientUnits="userSpaceOnUse"><stop offset="0" stop-color="#727272"/><stop offset="0.46" stop-color="#fff"/><stop offset="1" stop-color="#b4b4b6"/></linearGradient><radialGradient id="radial-gradient" cx="986.8" cy="504.82" r="373.01" gradientTransform="translate(-1980.89 -647.01) scale(2.97 2.6)" gradientUnits="userSpaceOnUse"><stop offset="0" stop-color="#424343"/><stop offset="0.6" stop-color="#fff"/><stop offset="1" stop-color="#d2d3d4"/></radialGradient></defs><g class="cls-2"><g id="Layer_1" data-name="Layer 1"><g class="cls-3"><g class="cls-4"><rect class="cls-1" x="-1254.4" y="-72.12" width="3637.64" height="1750.48"/><rect class="cls-5" x="1191.58" y="-54.48" width="289.5" height="112.55" rx="19.18"/><rect class="cls-6" x="1221.81" y="-54.48" width="259.27" height="83.3" rx="19.18"/><rect class="cls-5" x="1470" y="-54.48" width="289.5" height="112.55" rx="19.18"/><rect class="cls-6" x="1500.23" y="-54.48" width="259.27" height="83.3" rx="19.18"/><rect class="cls-5" x="1743.94" y="-54.48" width="289.5" height="112.55" rx="19.18"/><rect class="cls-6" x="1774.16" y="-54.48" width="259.27" height="83.3" rx="19.18"/><rect class="cls-5" x="1023.29" y="37.37" width="289.5" height="112.55" rx="19.18"/><rect class="cls-6" x="1053.52" y="37.37" width="259.27" height="83.3" rx="19.18"/><rect class="cls-5" x="1301.7" y="37.37" width="289.5" height="112.55" rx="19.18"/><rect class="cls-6" x="1331.93" y="37.37" width="259.27" height="83.3" rx="19.18"/><rect class="cls-5" x="1575.64" y="37.37" width="289.5" height="112.55" rx="19.18"/><rect class="cls-6" x="1605.87" y="37.37" width="259.27" height="83.3" rx="19.18"/><rect class="cls-5" x="1854.05" y="37.37" width="289.5" height="112.55" rx="19.18"/><rect class="cls-6" x="1884.28" y="37.37" width="259.27" height="83.3" rx="19.18"/><rect class="cls-5" x="1191.58" y="129.23" width="289.5" height="112.55" rx="19.18"/><rect class="cls-6" x="1221.81" y="129.23" width="259.27" height="83.3" rx="19.18"/><rect class="cls-5" x="1470" y="129.23" width="289.5" height="112.55" rx="19.18"/><rect class="cls-6" x="1500.23" y="129.23" width="259.27" height="83.3" rx="19.18"/><rect class="cls-5" x="1743.94" y="129.23" width="289.5" height="112.55" rx="19.18"/><rect class="cls-6" x="1774.16" y="129.23" width="259.27" height="83.3" rx="19.18"/><rect class="cls-5" x="1023.29" y="221.08" width="289.5" height="112.55" rx="19.18"/><rect class="cls-6" x="1053.52" y="221.08" width="259.27" height="83.3" rx="19.18"/><rect class="cls-5" x="1301.7" y="221.08" width="289.5" height="112.55" rx="19.18"/><rect class="cls-6" x="1331.93" y="221.08" width="259.27" height="83.3" rx="19.18"/><rect class="cls-5" x="1575.64" y="221.08" width="289.5" height="112.55" rx="19.18"/><rect class="cls-6" x="1605.87" y="221.08" width="259.27" height="83.3" rx="19.18"/><rect class="cls-5" x="1854.05" y="221.08" width="289.5" height="112.55" rx="19.18"/><rect class="cls-6" x="1884.28" y="221.08" width="259.27" height="83.3" rx="19.18"/><rect class="cls-5" x="1191.58" y="312.93" width="289.5" height="112.55" rx="19.18"/><rect class="cls-6" x="1221.81" y="312.93" width="259.27" height="83.3" rx="19.18"/><rect class="cls-5" x="1470" y="312.93" width="289.5" height="112.55" rx="19.18"/><rect class="cls-6" x="1500.23" y="312.93" width="259.27" height="83.3" rx="19.18"/><rect class="cls-5" x="1743.94" y="312.93" width="289.5" height="112.55" rx="19.18"/><rect class="cls-6" x="1774.16" y="312.93" width="259.27" height="83.3" rx="19.18"/><rect class="cls-5" x="1023.29" y="404.78" width="289.5" height="112.55" rx="19.18"/><rect class="cls-6" x="1053.52" y="404.78" width="259.27" height="83.3" rx="19.18"/><rect class="cls-5" x="1301.7" y="404.78" width="289.5" height="112.55" rx="19.18"/><rect class="cls-6" x="1331.93" y="404.78" width="259.27" height="83.3" rx="19.18"/><rect class="cls-5" x="1575.64" y="404.78" width="289.5" height="112.55" rx="19.18"/><rect class="cls-6" x="1605.87" y="404.78" width="259.27" height="83.3" rx="19.18"/><rect class="cls-5" x="1854.05" y="404.78" width="289.5" height="112.55" rx="19.18"/><rect class="cls-6" x="1884.28" y="404.78" width="259.27" height="83.3" rx="19.18"/><rect class="cls-5" x="1191.58" y="496.63" width="289.5" height="112.55" rx="19.18"/><rect class="cls-6" x="1221.81" y="496.63" width="259.27" height="83.3" rx="19.18"/><rect class="cls-5" x="1470" y="496.63" width="289.5" height="112.55" rx="19.18"/><rect class="cls-6" x="1500.23" y="496.63" width="259.27" height="83.3" rx="19.18"/><rect class="cls-5" x="1743.94" y="496.63" width="289.5" height="112.55" rx="19.18"/><rect class="cls-6" x="1774.16" y="496.63" width="259.27" height="83.3" rx="19.18"/><rect class="cls-5" x="1023.29" y="588.49" width="289.5" height="112.55" rx="19.18"/><rect class="cls-6" x="1053.52" y="588.49" width="259.27" height="83.3" rx="19.18"/><rect class="cls-5" x="1301.7" y="588.49" width="289.5" height="112.55" rx="19.18"/><rect class="cls-6" x="1331.93" y="588.49" width="259.27" height="83.3" rx="19.18"/><rect class="cls-5" x="1575.64" y="588.49" width="289.5" height="112.55" rx="19.18"/><rect class="cls-6" x="1605.87" y="588.49" width="259.27" height="83.3" rx="19.18"/><rect class="cls-5" x="1854.05" y="588.49" width="289.5" height="112.55" rx="19.18"/><rect class="cls-6" x="1884.28" y="588.49" width="259.27" height="83.3" rx="19.18"/><rect class="cls-5" x="1191.58" y="680.34" width="289.5" height="112.55" rx="19.18"/><rect class="cls-6" x="1221.81" y="680.34" width="259.27" height="83.3" rx="19.18"/><rect class="cls-5" x="1470" y="680.34" width="289.5" height="112.55" rx="19.18"/><rect class="cls-6" x="1500.23" y="680.34" width="259.27" height="83.3" rx="19.18"/><rect class="cls-5" x="1743.94" y="680.34" width="289.5" height="112.55" rx="19.18"/><rect class="cls-6" x="1774.16" y="680.34" width="259.27" height="83.3" rx="19.18"/><rect class="cls-5" x="1023.29" y="772.19" width="289.5" height="112.55" rx="19.18"/><rect class="cls-6" x="1053.52" y="772.19" width="259.27" height="83.3" rx="19.18"/><rect class="cls-5" x="1301.7" y="772.19" width="289.5" height="112.55" rx="19.18"/><rect class="cls-6" x="1331.93" y="772.19" width="259.27" height="83.3" rx="19.18"/><rect class="cls-5" x="1575.64" y="772.19" width="289.5" height="112.55" rx="19.18"/><rect class="cls-6" x="1605.87" y="772.19" width="259.27" height="83.3" rx="19.18"/><rect class="cls-5" x="1854.05" y="772.19" width="289.5" height="112.55" rx="19.18"/><rect class="cls-6" x="1884.28" y="772.19" width="259.27" height="83.3" rx="19.18"/></g><path class="cls-7" d="M1658.88,1023.8a2.93,2.93,0,0,1,2.94-2.93h30a31.85,31.85,0,0,1,31.69,28.61,3,3,0,0,1-2.94,3.24h-58.7a2.94,2.94,0,0,1-2.94-2.94Z"/><rect class="cls-7" x="1658.88" y="1014.88" width="32.79" height="5.88" rx="2.94"/><rect class="cls-8" x="1658.88" y="1052.72" width="64.75" height="8.76" rx="2.94"/><path class="cls-7" d="M1621.27,1023.8a2.93,2.93,0,0,0-2.94-2.93h-29.95a31.82,31.82,0,0,0-31.67,28.61,3,3,0,0,0,2.94,3.24h58.68a2.94,2.94,0,0,0,2.94-2.94Z"/><rect class="cls-7" x="1588.48" y="1014.88" width="32.79" height="5.87" rx="2.94"/><rect class="cls-8" x="1556.54" y="1052.72" width="64.73" height="8.75" rx="2.94"/><path class="cls-9" d="M1571.5,728c0-41.4,30.66-46.06,68.5-46.06s68.48,4.66,68.48,46.06l-.76,151.17c-.14.15-.35.28-.5.44h.5L1700,1017.75a2.94,2.94,0,0,1-2.93,2.84h-46.23a2.94,2.94,0,0,1-2.94-2.94v-104s0-.44,0-1.17c-2.61.26-5.25.41-7.93.41s-5.34-.15-8-.41c0,.73,0,1.17,0,1.17v104a2.94,2.94,0,0,1-2.93,2.94H1583a3,3,0,0,1-2.94-2.84l-7.74-138.13h.5c-.15-.16-.36-.29-.5-.44Z"/><path class="cls-10" d="M1646.58,912.55c-2.17.19-4.35.34-6.58.34a55.09,55.09,0,0,0,6.58-.41Z"/><path class="cls-10" d="M1633.41,912.48a55.26,55.26,0,0,0,6.59.41c-2.22,0-4.43-.15-6.59-.34Z"/><path class="cls-11" d="M1571.5,728h11.71l.64,151.17c.13.15.3.28.42.44h-.42l6.41,138a2.94,2.94,0,0,1-2.93,3H1583a3,3,0,0,1-2.94-2.84l-7.74-138.13h.5c-.15-.16-.36-.29-.5-.44Z"/><path class="cls-11" d="M1696.13,879.62h-.41c.13-.16.3-.29.41-.44l.64-151.17h11.71l-.76,151.17c-.14.15-.35.28-.5.44h.5L1700,1017.75a2.94,2.94,0,0,1-2.93,2.84h-4.39a2.94,2.94,0,0,1-2.94-3Z"/><path class="cls-12" d="M1695,693.67s44,33.18,63.54,33.85c21.46.73,55.54-18.88,55.54-18.88l29.39,30.06s-49.89,40.13-89.41,37.74c-11.92-.71-32.19-9.47-50.18-18.45C1684.05,748.11,1690.1,688.8,1695,693.67Z"/><path class="cls-12" d="M1688.39,689.44,1682.18,770s-2.56,31.27,25.88,41.43l.42-83.41C1708.48,707.29,1700.81,695.78,1688.39,689.44Z"/><path class="cls-13" d="M1798.31,752.08s-25.42,14.58-49.32,8.6-51.85-20.31-51.85-20.31l-.69,64.43s5.37,4.9,11.61,6.62l.42-51.15s28.32,18.52,54.61,16.28,45.4-14.19,46.83-19.21S1798.31,752.08,1798.31,752.08Z"/><path class="cls-12" d="M1607.83,684.28c.93-.18,1.9-.31,2.86-.46H1670l2.12.34L1666.4,745h-53.09Z"/><path class="cls-12" d="M1516.44,775c19-13.33,38.29-55.38,50-72.26,8.29-12,25.21-13.31,25.21-13.31l-10.84,89.85c-11.92,13.89-21.35,24.33-29.2,29.38-26.51,17.07-69.24,18.71-82,18.81a5.42,5.42,0,0,1-5.07-3.41l-11-27.48a5.42,5.42,0,0,1,4.55-7.42C1472.25,787.92,1503.36,784.2,1516.44,775Z"/><path class="cls-12" d="M1591.6,689.44l6.21,80.55s2.57,31.27-25.89,41.43L1571.5,728C1571.5,707.29,1579.18,695.78,1591.6,689.44Z"/><path class="cls-14" d="M1610.18,691.41A29.82,29.82,0,0,0,1640,721.22h0a29.82,29.82,0,0,0,29.81-29.81V670.3A29.81,29.81,0,0,0,1640,640.49h0a29.82,29.82,0,0,0-29.82,29.81Z"/><path class="cls-15" d="M1697.14,624.37c2.09,15,1.69,37.92-16.44,39-13.46,20.82-35,28.92-47,30.88-41,6.72-78.42-21-64-64.39,15.46-46.62,9.33-94.67,46.94-96.26C1699.36,530,1690.83,579.09,1697.14,624.37Z"/><path class="cls-16" d="M1678,635.67s.85-40.56-15.85-46.69,25.11-15.32,31.38-10c10.31,8.81,4.26,54.1,4.26,54.1S1695.52,614.78,1678,635.67Z"/><path class="cls-17" d="M1634.57,525a65.51,65.51,0,0,0-64,67l65.66,20.14L1701.6,589A65.51,65.51,0,0,0,1634.57,525Z"/><path class="cls-18" d="M1636.81,621.45C1613,622,1590,617.71,1570.28,609a15.19,15.19,0,0,1-2.28-1,9.93,9.93,0,0,1-3.86-13.49,10.2,10.2,0,0,1,13.49-3.9c17.29,7.66,37.68,11.51,58.72,11s41-5.21,57.69-13.6c.26-.14.51-.24.76-.36a10.11,10.11,0,0,1,13.32,3.27,10,10,0,0,1-3.08,13.75,14.45,14.45,0,0,1-2.66,1.35C1683.45,615.5,1660.68,620.88,1636.81,621.45Z"/><path class="cls-9" d="M1634.57,525a65.51,65.51,0,0,0-64,67l65.66,20.14L1701.6,589A65.51,65.51,0,0,0,1634.57,525Z"/><path class="cls-19" d="M1622.77,582.11c.08,4.85-2.92,9.19-7.59,9.86h0c-4.65.69-9.6-4-9.83-10.56-.88-24.84,8.68-46.74,31.54-59.84,6-3.44,15.7-2.1,19.35,6.57a46.68,46.68,0,0,0-9.3,3.83C1628.38,542.14,1622.33,562.82,1622.77,582.11Z"/><path class="cls-19" d="M1659.84,579.47c.14,4.71-2.5,9.24-7.09,10.37h0c-4.52,1.15-10-3.43-10.45-10.49a51.73,51.73,0,0,1,19.49-43.82c5.7-4.61,15.09-3.6,16.27,4.65C1678.06,540.18,1660.54,552.7,1659.84,579.47Z"/><path class="cls-19" d="M1596,572.49c.13,4.7-2.5,9.24-7.1,10.37h0c-4.52,1.16-10-3.43-10.45-10.49A51.74,51.74,0,0,1,1598,528.55c5.7-4.61,14-3.94,16.69.15h0C1596.62,538.17,1595.57,560.55,1596,572.49Z"/><path class="cls-19" d="M1636.81,621.45C1613,622,1590,617.71,1570.28,609a15.19,15.19,0,0,1-2.28-1,9.93,9.93,0,0,1-3.86-13.49,10.2,10.2,0,0,1,13.49-3.9c17.29,7.66,37.68,11.51,58.72,11s41-5.21,57.69-13.6c.26-.14.51-.24.76-.36a10.11,10.11,0,0,1,13.32,3.27,10,10,0,0,1-3.08,13.75,14.45,14.45,0,0,1-2.66,1.35C1683.45,615.5,1660.68,620.88,1636.81,621.45Z"/><path class="cls-18" d="M1664,763.63v21.55a25.05,25.05,0,0,1-50.1,0V763.63Z"/><path class="cls-20" d="M1833.64,678.07a2,2,0,0,1-2-2V621.88a2,2,0,0,1,3.93,0l-.2,54.24A1.8,1.8,0,0,1,1833.64,678.07Z"/><path class="cls-21" d="M1872.7,645.21l-34.37-73.15a5.14,5.14,0,0,0-4.69-3,5.26,5.26,0,0,0-4.72,3l-34.36,73.17a5.27,5.27,0,0,0,.32,5,5.2,5.2,0,0,0,4.39,2.41H1868a5.2,5.2,0,0,0,4.71-7.4Z"/><path class="cls-22" d="M1843.35,591.23l-36.67,36.67-8.85,18.84a1.62,1.62,0,0,0,.08,1.29L1847,599Z"/><polygon class="cls-22" points="1850.14 605.66 1806.79 649 1830.79 649 1857.8 621.99 1850.14 605.66"/><path class="cls-21" d="M1848.35,735.06s-30.29,29.37-43.91,36c0,0-20-26.91-25.21-50.68,0,0,25.29-5.17,34.56-16.06S1848.35,735.06,1848.35,735.06Z"/><path class="cls-23" d="M1831.66,673.14c-3.11,6.31-5,30.17-5,48.63,0,21.45,3.14,27.43,7,27.43s7-6,7-27.43c0-18.46-2.12-42.32-5.24-48.63Z"/><path class="cls-21" d="M1811.53,712.62c3.08,15.62,27.13,27.41,36.82,22.44s12-37.2-3.59-46.4S1808.48,697,1811.53,712.62Z"/><path class="cls-13" d="M1580.21,805.07a38.89,38.89,0,0,1-11.77,6.61l-.42-35,12.1-23.51Z"/><path class="cls-13" d="M1512.75,809.7c44.65-3.26,67.23-59.78,67.23-59.78l.14,3.25-2.73,26c-12.07,14.07-21.62,24.64-29.57,29.76-13.62,8.77-31.47,13.52-47.44,16.08a5.46,5.46,0,0,1-6.32-4.5C1493.3,815.17,1497.7,810.8,1512.75,809.7Z"/><path class="cls-21" d="M1460.7,831.87c11-.19,41.44-1,56.57-4a5.47,5.47,0,0,0,4.25-6.42c-1.76-8.93-6.16-27.94-14.15-43a5.53,5.53,0,0,0-7.89-2.12c-7.52,5-23.57,13.32-43.8,11.23-11.63-1.2-3.63,29.28-.33,40.39A5.46,5.46,0,0,0,1460.7,831.87Z"/><rect class="cls-5" x="1415.13" y="774.37" width="82.9" height="32.23" rx="5.49"/><rect class="cls-6" x="1423.78" y="774.37" width="74.24" height="23.85" rx="5.49"/></g><rect class="cls-24" x="-13.86" y="-19.12" width="1951.94" height="1117.86"/><path class="cls-25" d="M67.09-12.61H98.47Q156.61,54.3,216.79,123.51c53.26,61.39,108.1,124.24,163.81,188.67,57.19,66.14,116.3,133.68,176.46,202.87q92.67,106.58,190.41,218.43c-7.88,5-15.77,10-23.39,14.75q-97.26-111.66-188.83-218Q445.91,426.53,360.62,327.78c-55.43-64.47-110-127.22-162.77-188.54Q131.29,61.84,67.09-12.61Zm79.09,0q44.81,59.23,90.87,120c49.25,65,100.05,131.36,151.44,199.32Q467.35,411,550,519.63,634.5,631,723.56,747.47c8.14-4.25,16-8.73,24.69-13.19Q658.49,617.54,572.83,505.83c-55.68-72.57-109.71-143.75-162.78-213.32-51.93-68.1-103.43-134.66-153-199.85q-40.46-53.19-80.1-105.27Zm73.31,0Q249,32.23,279.14,77.74,347,180.45,417.94,287.3c48.29,72.83,96.95,147,147.27,222.64q77.07,115.89,157.56,236.73c8.67-3.71,17.08-7.67,26-11.63Q667.29,613.8,589.65,497.51q-76-113.64-149.1-223.23Q369.09,167.14,300.45,63.91q-25.68-38.5-50.87-76.52Zm68.66,0Q306,18.59,323.85,50.1c40.88,72.08,82.89,145.27,125.38,219.7,43.3,75.87,87.7,153,132.54,231.5q68.72,120.3,140.48,244.61c8.93-3.21,17.59-6.66,27-10-48.29-83.34-96-165.39-142-245.59C562.09,411.61,517.32,334,473.68,258Q409.27,145.76,346.74,37.63q-14.57-25.22-29-50.24Zm65.14,0,18.18,37.55c36.28,75.15,73.78,151.48,111.41,229C521,332.47,559.63,412.6,599.11,493.68Q659.32,617.36,722,745.16c9.19-2.71,18.12-5.53,27.83-8.33Q686.45,608.42,625.38,484.21,565.56,362,507.85,243.52C470,165.78,432.08,89.05,395.4,13.63L382.63-12.61Zm62.07,0,6.08,15.06Q468.79,119.56,517.31,240,566.38,361.74,617,487c34.1,84.45,69.33,170.36,104.49,257.3,9.45-2.08,18.9-4.38,28.87-6.56-35.94-87.37-71.51-173.52-106-258.48Q593.24,353.65,543.6,230.92c-32.67-80.54-65.7-160-97.43-238.57l-2-5Zm60.3,0q38.73,118.89,77.92,240.5c27.13,83.58,54.87,168.2,82.31,253.53,27.73,86.23,56.71,173.7,85.58,262,9.45-1.59,18.9-3.29,29.13-4.84C721.22,649.8,692,562.1,663.73,475.3q-41.9-128.52-83.08-254.84-38.5-117.57-75.88-233.07Zm58.52,0q28.23,114.45,56.73,230.68,31.71,128.39,63.89,259c21.51,87.76,44.11,176.23,66.41,265.53,9.71-1,19.41-2,29.39-3.1-22.56-89.81-44.5-178.83-66.66-267Q651,341.26,619.29,212.17c-18.65-75.42-37.48-150.4-55.94-224.78Zm57,0c12.64,73.92,25.64,148.25,38.38,222.83,14.92,87.3,29.51,175.16,45,263.32q23.32,133.05,46.46,268c9.71-.36,19.67-.81,29.91-1.25q-23.61-135.54-46.44-269.47c-15.18-88.67-30.95-177-46-264.85Q639.64,96.16,620.85-12.61Zm57.67,0Q659,95.87,669.47,204.84q12.85,133,25.5,266.66,12.63,134,25.72,269.21c10,.26,19.93.41,30.17.58-8.65-90.53-17.56-180.87-26-270.72q-12.58-134.32-25.48-268.23Q689.09,94.68,678.76-12.61Zm57.83,0c1.29,71.45,2.81,142.93,4.06,214.37q2.37,134.33,4.74,268.87t5.25,269.13c10,.85,19.92,1.6,30.15,2.37-1.56-90.32-3.65-180.47-5.22-270.76q-2.34-135.15-5-270.35-2-106.78-4-213.63Zm58.28,0q-6.23,107-12.72,213.53c-5.38,90.12-10.91,180.28-16,269.91-5.12,89.47-10.5,178.85-15.48,268.08,10,1.46,19.92,2.81,30.15,4.18,5.25-89.64,10.78-179.56,16-269.56,5.26-90.17,10.79-180.89,16.05-271.55q6.21-107,12.43-214.59Zm58.94,0Q809.07,95.53,794.5,202.73,776,338.2,757.44,472.38c-12.19,89-24.67,177.51-36.48,265.6,9.7,2,19.66,4,29.89,5.95q18.49-132.88,37-267c12.38-89.87,24.62-180.4,37.35-271.26Q840.45,97,855.56-12.61Zm60.47,0Q860.29,98,836.5,207.15c-19.64,90-39.1,179.57-58.34,268.1C759.07,563.12,739.58,650.44,721,737.14c9.69,2.63,19.39,5.16,29.61,7.73C770,657.82,789,570,808.33,481.61c19.52-89.06,39.75-179.12,59.41-269.65q24.19-111.42,49.43-224.57Zm63.83,0Q913.57,101.66,879.56,214c-27,89.31-54.42,177.77-80.67,265.24-26,86.59-52.23,172.26-77.66,257.11,9.43,3.2,19.13,6.21,29.35,9.37,26-85.17,51.82-171.35,78.46-258.25q40.4-131.76,81.75-266.71Q946.12,105.3,982.08-12.61Zm67.29,0C984.2,67.1,952.84,145.83,922.33,223.55q-51.92,132.24-102.72,261-49.87,126.93-98.12,250.83c9.43,3.8,18.87,7.38,28.82,11.12q48.78-124.36,99.45-252.07c34.08-86.16,68.92-173.75,103.8-262.39q47.54-120.78,96.63-244.66Zm70.58,0q-61.49,126-120.94,248.14Q901.73,365.21,840.58,491.05,780.6,614.8,721.76,734.6c9.43,4.25,18.6,8.42,28.29,12.73Q809,627.1,869.94,502.8C911.06,418.69,953.39,333,996.05,246.07q62.39-127,127.23-258.68Zm76.41,0q-79.25,134-155.12,263Q932.69,377,860.77,498.9,790.06,618.63,722,733.9c9.17,4.84,18.08,9.46,27.5,14.22Q818,632.33,889.33,512.29c48.37-81.58,98.47-164.73,148.95-249.56q76.88-129.24,156.78-264.16l6.62-11.18Zm83.4,0-17,24.15q-91.77,130.76-179.6,256.07-86.5,122.85-168.87,240.15Q799.87,622.54,722.55,733.12c8.64,5.25,17.28,10.45,26.45,15.79Q826.85,638.3,908.46,523q83.2-117.81,170.18-241,88.88-125.61,182-257.18,13.2-18.63,26.53-37.38Zm91.94,0L1294.46,40c-69.81,84.74-138.44,167.46-204.55,247.72q-97.1,117.91-190.1,230.24Q809.45,627.56,723.08,732.45c8.37,5.71,16.75,11.34,25.39,17C806.4,679.66,866.15,608,927.05,534.65c62.17-74.86,126.52-152,192.21-230.74,67.26-80.59,135.62-163.7,206.4-248.63l56.57-67.89Zm102.49,0q-41.57,43-82.12,85.12Q1240.61,194.69,1129.75,310.1q-108.37,112.47-211.08,219Q818.8,633,723.86,731.68c7.59,6.26,16,12.34,24.09,18.46,63.42-65.8,129.28-133.32,196.64-202.65q103.6-106.64,212.66-219.38c74.6-77.16,152.15-156.59,231.31-238q49.37-50.74,100-102.75Zm117.27,0q-69.67,62.13-137,122.17Q1290.18,225.71,1168,335c-79.12,70.86-156.56,139.53-231.24,206.39-72.48,64.9-143.69,128.24-212.08,189.71,7.06,6.59,14.91,13.1,22.49,19.64C816.07,689.39,888,626.3,961.34,561.25,1036.75,494.35,1115,425.6,1195,354.73Q1318.45,245.27,1449.59,129q78.56-69.45,160.34-141.61Zm135.49,0Q1584.1,71,1480.49,150.53,1338.19,259.94,1204.63,362.4,1075.3,461.67,953.49,554.77,835.84,645.16,724.92,730.48c7.06,7,14.38,14,21.44,20.83Q858,666.35,977,576q122.45-93.24,253.24-192.26,134.85-102.39,278.48-211.83,117.84-89.75,243-184.54Zm160.55,0q-164,107.85-316.57,208-154.17,101.45-297.85,196.43Q1100,483.42,969.71,569q-125.85,83-244,160.91c6.54,7.35,13.34,14.62,19.88,21.89q119.07-77.51,246.09-160.26Q1123,505.83,1263.5,414.67,1408.9,320,1564.23,218.57c107.5-70,220-142.87,336.26-218.59-5.46-4.21-10.93-8.4-16.35-12.59Zm98,56.38-.92-.85q-186.92,104.52-359,201.06-165.59,92.88-319.56,179.45Q1123.4,506.79,984.88,584.32,851.23,659.21,726.76,729.45c5.75,7.75,12,15.32,18.29,22.91Q870.39,682.63,1005.26,608q139.24-77.13,289.08-160.26,155.37-86,322.44-178.68,161-89.28,334.84-185.73V43.77Zm0,106.15q-349.55,164.9-649.71,307Q994,602.74,727.54,729c5.23,7.94,10.71,15.8,16.46,23.7q268.38-125.44,578.27-270.11,292-136.5,629.35-293.3V149.92Zm0,98.5q-333.15,130.68-622,244-323.25,126.9-601.25,236.19,7.42,12.39,14.87,24.49C930,681,1131,603.19,1348.11,519.37q281.61-108.74,603.51-233.19V248.42Zm0,91.3c-212.9,67.63-411.29,130.67-596.73,189.55C1129.67,600.78,921.62,667,729.12,728.36c4.17,8.44,8.61,16.79,13,25.17C936,693.25,1144.63,627.92,1371.57,557.12q270.67-84.42,580.05-180.87V339.72Zm0,85.74Q1645.11,501.39,1377,567.71C1143.57,625.63,928.66,678.8,730.17,728.1c3.65,8.62,7.3,17.15,10.94,25.68,199.52-48.13,415.23-100.41,650-157.32q262-63.53,560.54-135.62V425.46Zm0,81q-296,53.6-555.87,100.71c-240.49,43.58-460.84,83.72-664.53,120.64,2.86,8.79,5.72,17.48,8.85,26.09,204.46-35.8,425.85-74.67,667.37-117.17q255.06-44.87,544.18-95.8V506.48Zm0,77.45c-191.55,22.5-371.32,43.7-540.56,63.7-245.75,29-471.21,55.58-679,80,2.34,8.85,4.67,17.61,7.27,26.39,208.35-23.3,434.62-48.62,681.1-76.34,166.27-18.7,343-38.62,531.24-59.82v-34Zm0,75.29c-186.81,10.57-362.47,20.53-528.14,29.8C1173.11,703,944,715.69,733.06,727.65c1.81,8.92,3.36,17.73,5.17,26.55,211.46-10.6,440.81-22.13,691.93-34.91,163.54-8.32,337-17.22,521.46-26.69V659.22Zm0,73.18-519.4-2c-253.45-1-485.1-2-698.11-2.76q1.14,13.46,3.07,26.59c213.25,2.09,445.15,4.26,698.57,6.57q242.77,2.19,515.87,4.77V732.4Zm0,72.24q-272.85-17.26-514.87-32.71c-254.42-16.21-487.58-30.76-701.86-44.33.24,8.9,1,17.74,1.24,26.52,214.26,15,447.66,30.94,702.06,48.45q241.85,16.66,513.43,35.16V804.64Zm0,72q-271.87-33.3-513.22-62.8C1183.79,782.71,950.7,754,736.21,727.59c-.29,8.86-.84,17.82-1.13,26.55,214.47,27.37,447.55,57.31,702.14,89.77q242.17,30.86,514.4,65.68v-33Zm0,72.07L1435.86,855c-253.49-46-485.2-88.26-698.61-127.17-1.07,8.79-2.15,17.69-3,26.23,213.12,39.87,444.29,83.42,697.77,130.72q244.37,45.62,519.56,96.9v-33ZM-9.58,679.09Q85.36,688.63,186,698.77l258.55,26.07c93.34,9.41,190.64,19.22,291.33,29.26,0-8.76,0-17.65.07-26.53Q584.89,713.3,444.59,699.85,310.48,687,186,675.14,85.26,665.47-9.58,656.42v22.67Zm0-43.88,196.14,31.31q252.9,40.37,548.26,87.58c.28-8.72,1.1-17.65,1.91-26.45Q441,682.08,188.17,643,86.28,627.3-9.58,612.49v22.72Zm0-44.48L189,634.31q251,55.11,544.53,119.54c1.34-8.51,2.68-17.25,4.28-26Q444,665,192.16,611.16L-9.58,567.86v22.87Zm0-45.06q98.57,27.71,203.32,57,248.55,69.57,538.72,150.93c2.12-8.32,4-16.89,6.37-25.43q-291-79.79-540.33-148.38Q91.18,550.36-9.58,522.57v23.1Zm0-46.45q101.91,35,210.45,72.18,245.47,84.15,530.8,181.89c2.65-8.12,5.29-16.51,8-24.88Q453.42,632,207.47,549q-112.18-37.89-217-73.3v23.53Zm0-48.29q106.16,43.38,219.42,89.63Q451.16,639.17,730.62,753c3.18-7.85,6.61-16,10-24.1Q460,616.11,218,518.59,100.25,471.13-9.58,426.88v24.05Zm0-50.42Q102,453.68,221.43,510.6,457.05,623,729.57,752.5c4-7.64,7.92-15.54,12.14-23.29Q468.19,600.67,231.18,489.14,106.5,430.52-9.58,375.74v24.77Zm0-53.48,244.45,134.2Q465,607.56,728.79,752.07c4.48-7.36,9.22-14.94,14-22.41-177.34-96-342.42-185.54-496.57-269.3Q113.57,388.3-9.58,321.46V347Zm0-57.13q125.1,78.47,260,163Q473.29,592.54,728,751.49c5-6.92,10.27-14.1,15.53-21.28q-256.12-158.55-480-297.32Q121.35,344.78-9.58,263.33V289.9Zm0-61.94,78.55,56C133.24,329.7,200.09,377,268.55,425.58q105.7,75,218.29,155.06Q602.72,663,727.22,750.93c5.52-6.51,11.32-13.4,17.37-20.15Q618.92,643.21,502.37,560.9,389.17,481.18,283,406.27,179.7,333.49,82.38,264.91q-46.56-32.79-92-64.73V228Zm0-68.36L97.11,245.38c61.94,49.81,126,101.18,191.44,153.87Q389.67,480.63,497.37,567q110.48,88.82,228.8,183.38c6.06-6.1,12.63-12.56,18.94-18.9q-119-94.35-230.64-183.19Q406.08,462.1,304.33,380.79q-99-79-192.49-153.61Q50,177.94-9.58,130.38V159.6Zm0-75.85q67.43,61.11,137.2,124.58,88.79,80.67,183,165.82Q406.87,461.36,508.94,554q104.88,95,216.45,195.7C732,744,739.06,737.94,745.9,732c-75.09-67-147.58-132.27-218.28-195.68Q424.72,444,328,356.54c-63-56.75-124.8-112-184.34-165.71Q65.48,120.33-9.58,52.61V83.75ZM16.73-8.67C11.2-3.11,5.94,2.43.41,8Q79.18,88.46,161.29,172.85q84.5,86.39,173.29,177.23C395,412.2,457.44,476.31,521.31,541.69Q619.88,642.58,724.87,749c6.83-5.28,14.45-10.8,21.81-16.2-70.1-71-138.63-140.19-204.86-207.52q-96.59-98.16-188.3-191.76-89.28-91.06-174.6-177.29Q95.67,71.91,16.73-8.67Z"/><rect class="cls-1" x="-13.86" y="-8.67" width="1951.94" height="1107.41"/></g></g></svg>